<svg xmlns="http://www.w3.org/2000/svg" id="Layer_2" viewBox="0 0 1260.54 169.77"><defs><style>.cls-1{fill:#ee7203;}</style></defs><g id="Layer_1-2"><path class="cls-1" d="m591.33,142.03c-25.67.06-25.83-10.14-25.83-14.22V42.18c0-5.22-.11-14.19,25.55-14.38,25.55,0,25.7,8.97,25.7,14.2v85.68c.17,4.08.17,14.23-25.42,14.35M591.05,0c-53.02.32-91.53,15.11-91.53,45.7v79.2c.1,27.84,35.42,45.03,91.81,44.87,56.31-.29,91.48-17.84,91.48-45.66V44.96C682.76,14.26,643.92-.12,591.05,0"></path><path class="cls-1" d="m949.21,142.03c-25.77.06-25.92-10.14-25.92-14.22l.11-85.63c0-5.22-.22-14.19,25.55-14.38,25.7,0,25.7,8.97,25.77,14.2v85.68c.05,4.08.11,14.23-25.5,14.35M948.94,0c-53,.32-91.53,15.11-91.43,45.7v79.2c.05,27.84,35.26,45.03,91.76,44.87,56.27-.29,91.49-17.84,91.49-45.66V44.96C1040.54,14.26,1001.86-.12,948.94,0"></path><path class="cls-1" d="m836.5,128.66h-61.2V17.94c0-6.75-5.96-12.08-13.18-12.08h-39.06c-7.33,0-13.09,5.33-13.09,12.08v132.9c0,6.71,5.93,12.18,13.2,12.18h113.46c7.21,0,13.01-5.47,13.01-12.23v-10.1c0-6.66-5.8-12.04-13.14-12.04"></path><path class="cls-1" d="m93.12,134.86h-20.97c-3.34,0-5.8-2.31-5.8-5.33v-26.92c0-3.2,2.46-5.56,5.8-5.56h20.97c24.96-.93,33.68,6,33.68,19.04s-9.51,19.75-33.68,18.77m-26.78-95.11c0-3.1,2.46-5.39,5.8-5.39h20.56c22.77-.71,27.67,5.95,27.67,16.98s-6.92,17.48-27.27,17.38h-20.97c-3.23,0-5.8-2.53-5.8-5.46v-23.52Zm90.42,42.45c-.44-.17-.95-.17-1.4-.17v-.51c1.07-.22,2.29-.51,3.25-.83,2.51-.65,4.92-1.38,7.27-2.36,4.41-1.82,8.26-4.29,11.45-7.34,6.09-6.07,9.49-13.77,9.13-24.04-.24-26.56-21.23-42.2-73.28-40.95H13.2C5.87,6.01,0,11.42,0,18.14v132.8c0,6.77,5.99,12.28,13.2,12.28l109.36.04c37.17,0,47.69-3.35,58.46-12.57,7.87-6.62,13.42-17.27,13.63-29.56,0,0,3.36-34-37.88-38.93"></path><path class="cls-1" d="m267.36,5.86h-39.34c-7.25,0-13.18,5.43-13.18,12.08v132.92c-.11,6.71,5.93,12.18,13.18,12.18h39.53c7.24,0,13.01-5.47,13.01-12.18V17.94c0-6.65-5.93-12.08-13.2-12.08"></path><path class="cls-1" d="m427.46,88.33l63.66-70.66c6.26-6.56,4.76-11.82-2.51-11.82h-48.44c-8.14.32-17.68,4.5-24.16,12.09l-27.94,31.04-31.11-31.04c-6.72-6.67-14.54-11.41-25.12-12.09h-32.3c-7.19,0-8.26,5.15-1.72,11.67l62.42,62.38-64.48,71.65c-5.82,5.59-4.48,11.48,2.79,11.48h48.55c9.86-.38,17.9-5.47,24.03-12.18l28.48-31.61,31.62,31.61c7.3,7.39,15.19,11.96,25.12,12.18h32.37c7.16,0,9.05-5.06,2.06-11.48l-63.33-63.22Z"></path><path class="cls-1" d="m1247.42,5.86h-34.11c-7.32,0-13.01,5.43-13.01,12.18v93.27h-.62l-47.34-93.17c-2.82-6.71-11.15-12.14-18.43-12.14h-52.97c-7.22,0-13.1,5.43-13.1,12.14v132.8c0,6.77,5.88,12.28,13.15,12.28h34.03c7.25,0,13.15-5.52,13.15-12.28V51.31h.21l51.08,99.55c4.46,8,11.24,12.18,18.45,12.18h49.58c7.19,0,13.06-5.47,13.06-12.18V17.94c0-6.65-5.87-12.08-13.12-12.08"></path></g></svg>