<svg id="图层_1" style="enable-background:new 0 0 120 43;" version="1.1" viewBox="0 0 120 43" x="0px" xml:space="preserve" xmlns="http://www.w3.org/2000/svg" xmlns:xlink="http://www.w3.org/1999/xlink" y="0px">
<style type="text/css">
	.st0{fill:#282E8C;}
	.st1{fill:#E8343C;enable-background:new    ;}
</style>
<g>
<g>
<path class="st0" d="M20.12,25.37c0-4.94,0-9.88,0-14.82c0-0.1,0-0.2,0.01-0.29c0.04-0.29,0.21-0.45,0.51-0.45
			c3.25,0,6.5-0.03,9.75,0.01c2.65,0.04,5.2,0.58,7.58,1.79c3.6,1.84,5.88,4.75,6.94,8.63c0.51,1.86,0.63,3.75,0.55,5.67
			c-0.08,1.93-0.4,3.82-1.11,5.63c-1.55,3.96-4.35,6.67-8.31,8.17c-1.69,0.64-3.44,1.02-5.23,1.12c-1.22,0.07-2.43,0.08-3.65,0.09
			c-2.08,0.01-4.16,0-6.24,0c-0.67,0-0.78-0.11-0.78-0.77C20.12,35.23,20.12,30.3,20.12,25.37z M26.82,34.85
			c0.07,0.01,0.12,0.02,0.18,0.02c0.83,0,1.66,0.02,2.49-0.01c1.34-0.04,2.67-0.22,3.94-0.68c1.73-0.62,3.1-1.69,3.95-3.35
			c0.62-1.21,0.93-2.51,1.05-3.85c0.15-1.71,0.13-3.42-0.23-5.11c-0.26-1.24-0.71-2.4-1.54-3.37c-0.96-1.12-2.22-1.74-3.61-2.13
			c-2.02-0.57-4.1-0.5-6.17-0.48c-0.01,0-0.03,0.02-0.05,0.03C26.82,22.22,26.82,28.52,26.82,34.85z"></path>
<path class="st0" d="M66.72,18.81c0-0.6,0-1.11,0-1.63c0-0.47,0.14-0.61,0.61-0.61c1.59,0,3.19,0,4.78,0c0.46,0,0.6,0.14,0.6,0.6
			c0,7.72,0,15.44,0,23.16c0,0.46-0.16,0.62-0.61,0.62c-1.58,0-3.17,0-4.75,0c-0.45,0-0.61-0.16-0.61-0.62c0-0.51,0-1.02,0-1.54
			c0-0.08,0-0.16,0-0.3c-0.13,0.11-0.21,0.18-0.3,0.25c-1.62,1.41-3.51,2.25-5.64,2.45c-4.55,0.41-7.98-1.49-10.43-5.26
			c-1.11-1.71-1.72-3.62-1.93-5.66c-0.33-3.23,0.23-6.26,2-9.01c1.62-2.52,3.84-4.29,6.78-5.01c3.45-0.85,6.54-0.09,9.2,2.3
			C66.49,18.61,66.58,18.68,66.72,18.81z M66.97,28.51c0-0.83-0.08-1.65-0.3-2.46c-0.43-1.6-1.28-2.91-2.72-3.77
			c-1.22-0.72-2.55-0.89-3.94-0.76c-1.93,0.19-3.41,1.12-4.45,2.75c-0.69,1.09-0.99,2.3-1.06,3.57c-0.09,1.65,0.17,3.23,0.94,4.71
			c1.23,2.37,3.71,3.65,6.31,3.27c1.74-0.25,3.05-1.16,3.99-2.63C66.64,31.77,66.95,30.18,66.97,28.51z"></path>
<path class="st0" d="M110.95,38.52c-0.5,0.38-0.95,0.75-1.44,1.07c-1.37,0.9-2.87,1.45-4.5,1.59c-4.69,0.4-8.16-1.6-10.59-5.53
			c-1.02-1.64-1.57-3.46-1.77-5.39c-0.3-2.93,0.13-5.72,1.58-8.3c1.58-2.82,3.86-4.83,7.02-5.68c3.52-0.94,6.68-0.2,9.41,2.26
			c0.08,0.07,0.16,0.14,0.27,0.24c0.01-0.11,0.02-0.17,0.02-0.24c0-0.49,0-0.98,0-1.46c0-0.34,0.17-0.52,0.5-0.52
			c1.66,0,3.32,0,4.97,0c0.36,0,0.5,0.17,0.5,0.56c0,3.3,0,6.6,0,9.9c0,4.42,0,8.84,0,13.26c0,0.51-0.14,0.65-0.65,0.65
			c-1.57,0-3.14,0-4.7,0c-0.46,0-0.62-0.16-0.62-0.61C110.95,39.73,110.95,39.14,110.95,38.52z M111.2,28.25
			c-0.02-0.25-0.05-0.76-0.11-1.25c-0.04-0.32-0.11-0.64-0.19-0.95c-0.44-1.6-1.28-2.91-2.72-3.77c-1.22-0.72-2.55-0.89-3.95-0.75
			c-1.79,0.17-3.2,1-4.24,2.45c-0.83,1.16-1.18,2.47-1.26,3.88c-0.09,1.64,0.17,3.21,0.93,4.69c1.23,2.38,3.65,3.65,6.3,3.29
			c1.76-0.24,3.07-1.15,4.01-2.64C110.87,31.76,111.18,30.17,111.2,28.25z"></path>
<path class="st0" d="M9.38,16.56c1.6,0,3.2,0,4.8,0c0.49,0,0.64,0.15,0.64,0.64c0,1.42,0,2.84,0,4.27c0,0.39-0.14,0.65-0.49,0.85
			c-1.57,0.89-3.14,1.8-4.7,2.71c-0.1,0.06-0.21,0.11-0.27,0.2c-0.06,0.08-0.11,0.21-0.08,0.3c0.02,0.07,0.15,0.14,0.24,0.16
			c0.1,0.03,0.21,0.01,0.31,0.01c1.44,0,2.88,0,4.31,0c0.52,0,0.68,0.15,0.68,0.66c0,1.49,0,2.97,0,4.46c0,0.39-0.14,0.65-0.49,0.85
			c-1.58,0.9-3.15,1.81-4.72,2.72c-0.18,0.1-0.42,0.2-0.35,0.46c0.07,0.26,0.32,0.2,0.52,0.2c1.46,0,2.93,0,4.39,0
			c0.5,0,0.65,0.16,0.65,0.66c0,1.52,0,3.04,0,4.56c0,0.5-0.16,0.65-0.66,0.65c-3.19,0-6.37,0-9.56,0c-0.51,0-0.66-0.14-0.66-0.65
			c0-1.5,0.01-2.99-0.01-4.49c0-0.39,0.14-0.65,0.49-0.84c1.55-0.88,3.1-1.78,4.64-2.68C9.2,32.21,9.33,32.11,9.43,32
			c0.15-0.17,0.09-0.34-0.13-0.4c-0.09-0.02-0.19-0.02-0.29-0.02c-1.49,0-2.97,0-4.46,0c-0.44,0-0.6-0.15-0.6-0.6
			c0-1.53,0-3.06,0-4.58c0-0.35,0.14-0.59,0.45-0.77c1.57-0.89,3.12-1.8,4.68-2.7c0.14-0.08,0.27-0.18,0.37-0.3
			c0.13-0.15,0.08-0.3-0.11-0.36c-0.1-0.04-0.22-0.04-0.33-0.04c-1.49,0-2.97,0-4.46,0c-0.45,0-0.6-0.15-0.6-0.6
			c0-1.49,0-2.97,0-4.46c0-0.45,0.15-0.59,0.6-0.59C6.16,16.56,7.77,16.56,9.38,16.56z"></path>
<path class="st0" d="M79.6,21.73c-0.13,0-0.22,0-0.32,0c-1.1,0-2.19,0-3.29,0c-0.4,0-0.55-0.18-0.59-0.58
			c-0.05-0.52,0.15-0.9,0.53-1.26c2.79-2.63,5.56-5.28,8.33-7.94c0.26-0.25,0.54-0.34,0.88-0.31c0.2,0.02,0.31,0.12,0.34,0.32
			c0.01,0.11,0.02,0.23,0.02,0.34c-0.01,1.34-0.02,2.68-0.02,4.02c0,0.06,0.01,0.13,0.01,0.22c0.11,0.01,0.21,0.02,0.31,0.02
			c1.27,0,2.54,0,3.8,0c0.49,0,0.62,0.13,0.62,0.62c0,1.3,0,2.6,0,3.9c0,0.5-0.14,0.64-0.63,0.64c-1.26,0-2.52,0-3.78,0
			c-0.1,0-0.19,0-0.31,0c0,4.49,0,8.96,0,13.46c0.09,0,0.19,0.01,0.28,0.01c1.11,0,2.23,0,3.34,0c0.43,0,0.57,0.14,0.57,0.57
			c0,1.53,0,3.06,0,4.58c0,0.43-0.17,0.59-0.59,0.59c-1.45,0-2.89,0.01-4.34,0c-0.87-0.01-1.74-0.12-2.54-0.5
			c-1.44-0.68-2.26-1.83-2.52-3.39c-0.07-0.45-0.1-0.92-0.1-1.38c-0.01-4.53,0-9.05,0-13.58C79.6,21.98,79.6,21.88,79.6,21.73z"></path>
<path class="st1" d="M9.39,14.37C6,14.43,3.14,11.51,3.08,8.2c-0.07-3.35,2.7-6.43,6.3-6.44c3.49-0.01,6.32,2.82,6.31,6.31
			C15.68,11.68,12.62,14.43,9.39,14.37z M9.42,5.92c-1.08-0.07-2.19,0.8-2.2,2.13c-0.01,1.2,0.96,2.18,2.14,2.19
			c1.19,0.01,2.17-0.96,2.17-2.16C11.54,6.82,10.67,5.93,9.42,5.92z"></path>
</g>
</g>
</svg>