<?xml version="1.0" encoding="UTF-8"?>
<!DOCTYPE svg PUBLIC "-//W3C//DTD SVG 1.1//EN" "http://www.w3.org/Graphics/SVG/1.1/DTD/svg11.dtd">
<svg xmlns="http://www.w3.org/2000/svg" version="1.1" width="1024px" height="1024px" style="shape-rendering:geometricPrecision; text-rendering:geometricPrecision; image-rendering:optimizeQuality; fill-rule:evenodd; clip-rule:evenodd" xmlns:xlink="http://www.w3.org/1999/xlink">
<g><path style="opacity:1" fill="#005fcd" d="M -0.5,-0.5 C 340.833,-0.5 682.167,-0.5 1023.5,-0.5C 1023.5,340.833 1023.5,682.167 1023.5,1023.5C 682.167,1023.5 340.833,1023.5 -0.5,1023.5C -0.5,682.167 -0.5,340.833 -0.5,-0.5 Z"/></g>
<g><path style="opacity:1" fill="#f4f5f5" d="M 529.5,303.5 C 517.607,298.178 505.607,298.178 493.5,303.5C 492.893,303.376 492.56,303.043 492.5,302.5C 492.5,271.167 492.5,239.833 492.5,208.5C 505.167,208.5 517.833,208.5 530.5,208.5C 530.832,240.338 530.498,272.004 529.5,303.5 Z"/></g>
<g><path style="opacity:1" fill="#f3f4f5" d="M 649.5,269.5 C 658.786,277.45 667.786,285.784 676.5,294.5C 657.102,315.227 638.102,336.227 619.5,357.5C 609.5,350.5 599.5,343.5 589.5,336.5C 609.522,314.147 629.522,291.813 649.5,269.5 Z"/></g>
<g><path style="opacity:1" fill="#f3f4f5" d="M 372.5,268.5 C 393.473,290.479 413.806,313.146 433.5,336.5C 424.137,343.855 414.47,350.855 404.5,357.5C 385.011,336.509 365.677,315.342 346.5,294C 355.672,285.995 364.338,277.495 372.5,268.5 Z"/></g>
<g><path style="opacity:1" fill="#074bc7" d="M 529.5,303.5 C 530.498,272.004 530.832,240.338 530.5,208.5C 517.833,208.5 505.167,208.5 492.5,208.5C 492.5,239.833 492.5,271.167 492.5,302.5C 491.336,271.003 491.169,239.336 492,207.5C 505.091,206.345 518.258,206.178 531.5,207C 532.662,239.428 532.829,271.928 532,304.5C 530.703,305.784 529.536,305.617 528.5,304C 528.728,303.601 529.062,303.435 529.5,303.5 Z"/></g>
<g><path style="opacity:1" fill="#f4f5f5" d="M 627.5,384.5 C 550.166,384.667 472.833,384.5 395.5,384C 397.093,383.051 398.426,381.885 399.5,380.5C 429.447,362.523 459.113,344.023 488.5,325C 495.591,320.448 503.258,317.614 511.5,316.5C 519.837,316.89 527.504,319.39 534.5,324C 565.5,343.667 596.5,363.333 627.5,383C 628.738,383.69 628.738,384.19 627.5,384.5 Z"/></g>
<g><path style="opacity:1" fill="#024ac7" d="M 399.5,380.5 C 398.426,381.885 397.093,383.051 395.5,384C 472.833,384.5 550.166,384.667 627.5,384.5C 627.918,385.222 628.584,385.722 629.5,386C 550.834,386.5 472.167,386.667 393.5,386.5C 393.617,382.751 395.617,380.751 399.5,380.5 Z"/></g>
<g><path style="opacity:1" fill="#012ec0" d="M 718.5,403.5 C 682.832,403.333 647.165,403.5 611.5,404C 609.726,409.032 608.392,414.199 607.5,419.5C 606.922,413.923 607.922,408.423 610.5,403C 647.238,402.171 683.238,402.337 718.5,403.5 Z"/></g>
<g><path style="opacity:1" fill="#f3f4f5" d="M 418.5,489.5 C 419.775,497.881 419.441,506.214 417.5,514.5C 415.025,523.049 412.525,531.716 410,540.5C 402.198,558.319 388.698,568.819 369.5,572C 344.169,572.5 318.836,572.667 293.5,572.5C 288.333,572.291 283.333,571.291 278.5,569.5C 268.027,565.217 259.027,558.717 251.5,550C 254.957,547.613 257.957,544.78 260.5,541.5C 266.5,536.167 272.167,530.5 277.5,524.5C 279.785,521.548 282.452,518.882 285.5,516.5C 296.176,527.504 309.176,533.671 324.5,535C 335.167,535.667 345.833,535.667 356.5,535C 365.282,531.944 368.782,525.777 367,516.5C 365.581,515.54 364.081,514.707 362.5,514C 354.425,512.818 346.425,511.318 338.5,509.5C 330.167,508.167 321.833,506.833 313.5,505.5C 307.594,503.858 301.594,502.524 295.5,501.5C 289.342,498.524 283.842,494.524 279,489.5C 276.402,485.372 275.235,480.872 275.5,476C 277.954,458.336 282.954,441.503 290.5,425.5C 298.26,414.929 308.594,408.095 321.5,405C 336.133,403.897 350.8,403.397 365.5,403.5C 377.833,403.667 390.167,403.833 402.5,404C 414.575,405.444 423.742,411.278 430,421.5C 430.667,424.833 430.667,428.167 430,431.5C 421.833,441 413.667,450.5 405.5,460C 397.969,453.551 389.303,448.551 379.5,445C 365.167,444.333 350.833,444.333 336.5,445C 328.838,447.647 326.338,452.814 329,460.5C 329.903,461.701 331.069,462.535 332.5,463C 356.637,467.368 380.637,472.368 404.5,478C 410.646,480.213 415.313,484.046 418.5,489.5 Z"/></g>
<g><path style="opacity:1" fill="#f3f4f4" d="M 465.5,531.5 C 467.167,523.499 468.834,515.499 470.5,507.5C 474.12,493.681 477.454,479.681 480.5,465.5C 482.247,459.257 483.58,452.924 484.5,446.5C 485.043,446.44 485.376,446.107 485.5,445.5C 470.672,444.833 456.006,444.167 441.5,443.5C 444.362,430.387 447.695,417.387 451.5,404.5C 498.167,403.167 544.833,403.167 591.5,404.5C 587.706,418.006 584.706,431.673 582.5,445.5C 566.5,445.5 550.5,445.5 534.5,445.5C 525.481,487.912 515.981,530.245 506,572.5C 489.577,573.492 473.077,573.825 456.5,573.5C 459.07,559.413 462.07,545.413 465.5,531.5 Z"/></g>
<g><path style="opacity:1" fill="#f3f4f4" d="M 718.5,403.5 C 730.903,404.083 741.569,408.749 750.5,417.5C 754.27,429.109 754.27,440.776 750.5,452.5C 746.944,464.687 743.444,477.02 740,489.5C 737.259,495.988 733.759,501.988 729.5,507.5C 724.214,513.112 717.881,517.112 710.5,519.5C 709.209,519.263 708.209,519.596 707.5,520.5C 703.528,521.108 699.528,521.608 695.5,522C 674.503,522.5 653.503,522.667 632.5,522.5C 630.324,532.872 627.99,543.205 625.5,553.5C 623.465,559.964 621.798,566.631 620.5,573.5C 603.833,573.5 587.167,573.5 570.5,573.5C 571.204,567.351 572.537,561.351 574.5,555.5C 576.658,546.534 578.658,537.534 580.5,528.5C 583.626,517 586.626,505.334 589.5,493.5C 592.994,479.192 596.327,464.858 599.5,450.5C 602.301,440.299 604.968,429.966 607.5,419.5C 608.392,414.199 609.726,409.032 611.5,404C 647.165,403.5 682.832,403.333 718.5,403.5 Z"/></g>
<g><path style="opacity:1" fill="#0738c1" d="M 750.5,417.5 C 753.934,421.774 755.268,426.774 754.5,432.5C 754.442,437.547 753.942,442.547 753,447.5C 752.53,450.072 751.697,451.739 750.5,452.5C 754.27,440.776 754.27,429.109 750.5,417.5 Z"/></g>
<g><path style="opacity:1" fill="#81b2e2" d="M 441.5,443.5 C 456.006,444.167 470.672,444.833 485.5,445.5C 485.376,446.107 485.043,446.44 484.5,446.5C 470.01,445.504 455.343,445.171 440.5,445.5C 440.328,444.508 440.662,443.842 441.5,443.5 Z"/></g>
<g><path style="opacity:1" fill="#0849c6" d="M 697.5,444.5 C 682.431,445.174 667.265,445.841 652,446.5C 651.536,445.906 651.369,445.239 651.5,444.5C 666.687,443.223 682.02,443.223 697.5,444.5 Z"/></g>
<g><path style="opacity:1" fill="#0830c0" d="M 440.5,445.5 C 455.343,445.171 470.01,445.504 484.5,446.5C 483.58,452.924 482.247,459.257 480.5,465.5C 479.876,465.083 479.543,464.416 479.5,463.5C 480.606,457.909 481.94,452.409 483.5,447C 468.994,446.831 454.661,446.331 440.5,445.5 Z"/></g>
<g><path style="opacity:1" fill="#025fcc" d="M 651.5,444.5 C 651.369,445.239 651.536,445.906 652,446.5C 667.265,445.841 682.431,445.174 697.5,444.5C 699.404,444.738 700.738,445.738 701.5,447.5C 700.273,457.41 697.939,467.077 694.5,476.5C 694.573,478.027 693.906,479.027 692.5,479.5C 690.628,480.511 688.628,481.345 686.5,482C 672.504,482.5 658.504,482.667 644.5,482.5C 644.737,481.209 644.404,480.209 643.5,479.5C 645.799,467.636 648.466,455.969 651.5,444.5 Z"/></g>
<g><path style="opacity:1" fill="#0a3dc3" d="M 599.5,450.5 C 596.327,464.858 592.994,479.192 589.5,493.5C 588.876,493.083 588.543,492.416 588.5,491.5C 591.333,479.5 594.167,467.5 597,455.5C 597.47,452.928 598.303,451.261 599.5,450.5 Z"/></g>
<g><path style="opacity:1" fill="#123fc3" d="M 701.5,447.5 C 703.441,449.011 703.941,451.011 703,453.5C 700.868,460.895 698.535,468.228 696,475.5C 695.617,476.056 695.117,476.389 694.5,476.5C 697.939,467.077 700.273,457.41 701.5,447.5 Z"/></g>
<g><path style="opacity:1" fill="#f4f4f4" d="M 253.5,524.5 C 238.912,537.42 224.912,551.087 211.5,565.5C 200.733,574.764 190.4,584.597 180.5,595C 213.498,595.5 246.498,595.667 279.5,595.5C 271.565,610.37 263.898,625.37 256.5,640.5C 254.896,641.287 254.229,642.62 254.5,644.5C 198.167,644.5 141.833,644.5 85.5,644.5C 85.3334,627.83 85.5001,611.163 86,594.5C 92.2986,590.689 98.1319,586.355 103.5,581.5C 147.463,549.84 191.13,517.673 234.5,485C 243.03,478.971 251.697,473.137 260.5,467.5C 257.616,481.793 260.949,494.626 270.5,506C 265.008,512.325 259.342,518.492 253.5,524.5 Z"/></g>
<g><path style="opacity:1" fill="#073ec3" d="M 290.5,425.5 C 282.954,441.503 277.954,458.336 275.5,476C 275.235,480.872 276.402,485.372 279,489.5C 283.842,494.524 289.342,498.524 295.5,501.5C 282.512,498.177 275.179,489.844 273.5,476.5C 276.321,459.545 281.154,443.212 288,427.5C 288.708,426.619 289.542,425.953 290.5,425.5 Z"/></g>
<g><path style="opacity:1" fill="#f4f4f4" d="M 807.5,498.5 C 830.776,517.471 854.776,535.471 879.5,552.5C 880.262,554.262 881.596,555.262 883.5,555.5C 898.113,567.807 913.446,579.14 929.5,589.5C 930.262,591.262 931.596,592.262 933.5,592.5C 933.811,593.478 934.478,594.145 935.5,594.5C 936.499,611.153 936.833,627.82 936.5,644.5C 880.499,644.667 824.499,644.5 768.5,644C 763.853,634.531 758.853,625.365 753.5,616.5C 750.437,609.374 747.104,602.374 743.5,595.5C 775.507,595.833 807.507,595.5 839.5,594.5C 839.376,593.893 839.043,593.56 838.5,593.5C 837.167,592.833 835.833,592.167 834.5,591.5C 805.907,565.183 777.24,538.85 748.5,512.5C 751.861,507.112 754.694,501.446 757,495.5C 759.615,486.494 762.115,477.494 764.5,468.5C 779.066,478.273 793.399,488.273 807.5,498.5 Z"/></g>
<g><path style="opacity:1" fill="#264dc6" d="M 643.5,479.5 C 644.404,480.209 644.737,481.209 644.5,482.5C 658.504,482.667 672.504,482.5 686.5,482C 688.628,481.345 690.628,480.511 692.5,479.5C 690.522,482.012 687.855,483.512 684.5,484C 670.488,484.833 656.488,484.666 642.5,483.5C 643.246,482.264 643.579,480.93 643.5,479.5 Z"/></g>
<g><path style="opacity:1" fill="#123ec2" d="M 418.5,489.5 C 419.222,489.918 419.722,490.584 420,491.5C 421.011,499.983 420.344,508.316 418,516.5C 417.536,515.906 417.369,515.239 417.5,514.5C 419.441,506.214 419.775,497.881 418.5,489.5 Z"/></g>
<g><path style="opacity:1" fill="#0335c2" d="M 313.5,505.5 C 321.833,506.833 330.167,508.167 338.5,509.5C 337.726,510.147 336.726,510.48 335.5,510.5C 328.853,509.225 322.186,508.059 315.5,507C 314.584,506.722 313.918,506.222 313.5,505.5 Z"/></g>
<g><path style="opacity:1" fill="#053bc3" d="M 470.5,507.5 C 468.834,515.499 467.167,523.499 465.5,531.5C 464.387,530.054 464.22,528.387 465,526.5C 466.507,519.362 468.341,513.029 470.5,507.5 Z"/></g>
<g><path style="opacity:1" fill="#093ec4" d="M 729.5,507.5 C 725.318,513.821 719.485,518.155 712,520.5C 711.235,520.43 710.735,520.097 710.5,519.5C 717.881,517.112 724.214,513.112 729.5,507.5 Z"/></g>
<g><path style="opacity:1" fill="#0847c5" d="M 707.5,520.5 C 708.239,520.369 708.906,520.536 709.5,521C 703.639,522.787 697.639,523.787 691.5,524C 672.17,524.5 652.836,524.667 633.5,524.5C 631.476,534.929 628.976,545.262 626,555.5C 625.536,554.906 625.369,554.239 625.5,553.5C 627.99,543.205 630.324,532.872 632.5,522.5C 653.503,522.667 674.503,522.5 695.5,522C 699.528,521.608 703.528,521.108 707.5,520.5 Z"/></g>
<g><path style="opacity:1" fill="#083dc0" d="M 277.5,524.5 C 272.167,530.5 266.5,536.167 260.5,541.5C 265.104,535.364 270.604,529.364 277,523.5C 277.399,523.728 277.565,524.062 277.5,524.5 Z"/></g>
<g><path style="opacity:1" fill="#1b47c5" d="M 807.5,498.5 C 831.866,516.016 855.866,534.016 879.5,552.5C 854.776,535.471 830.776,517.471 807.5,498.5 Z"/></g>
<g><path style="opacity:1" fill="#0a3cc2" d="M 580.5,528.5 C 578.658,537.534 576.658,546.534 574.5,555.5C 573.876,555.083 573.543,554.416 573.5,553.5C 575.286,544.303 577.619,535.97 580.5,528.5 Z"/></g>
<g><path style="opacity:1" fill="#1844c4" d="M 883.5,555.5 C 899.198,566.348 914.531,577.681 929.5,589.5C 913.446,579.14 898.113,567.807 883.5,555.5 Z"/></g>
<g><path style="opacity:1" fill="#0c3fc3" d="M 253.5,524.5 C 252.766,525.708 252.433,527.041 252.5,528.5C 251.448,528.351 250.448,528.517 249.5,529C 237.274,541.728 224.607,553.895 211.5,565.5C 224.912,551.087 238.912,537.42 253.5,524.5 Z"/></g>
<g><path style="opacity:1" fill="#0032bf" d="M 278.5,569.5 C 283.333,571.291 288.333,572.291 293.5,572.5C 316.663,573.332 339.996,573.832 363.5,574C 339.5,574.667 315.5,574.667 291.5,574C 286.648,573.287 281.981,571.954 277.5,570C 277.728,569.601 278.062,569.435 278.5,569.5 Z"/></g>
<g><path style="opacity:1" fill="#0326be" d="M 834.5,591.5 C 835.833,592.167 837.167,592.833 838.5,593.5C 807.004,594.498 775.338,594.832 743.5,594.5C 774.014,594.164 804.347,593.164 834.5,591.5 Z"/></g>
<g><path style="opacity:1" fill="#6ea6df" d="M 838.5,593.5 C 839.043,593.56 839.376,593.893 839.5,594.5C 807.507,595.5 775.507,595.833 743.5,595.5C 743.5,595.167 743.5,594.833 743.5,594.5C 775.338,594.832 807.004,594.498 838.5,593.5 Z"/></g>
<g><path style="opacity:1" fill="#0338c2" d="M 642.5,604.5 C 634.197,604.159 626.53,606.159 619.5,610.5C 618.262,610.19 618.262,609.69 619.5,609C 623.271,606.781 627.271,605.115 631.5,604C 637.283,603.132 640.95,603.298 642.5,604.5 Z"/></g>
<g><path style="opacity:1" fill="#0839c3" d="M 335.5,604.5 C 325.718,603.775 317.051,606.442 309.5,612.5C 308.668,611.671 309.001,610.838 310.5,610C 319.404,604.13 327.737,602.297 335.5,604.5 Z"/></g>
<g><path style="opacity:1" fill="#f5f6f5" d="M 421.5,606.5 C 421.5,611.167 421.5,615.833 421.5,620.5C 409.988,620.172 398.654,620.505 387.5,621.5C 387.5,626.167 387.5,630.833 387.5,635.5C 396.5,635.5 405.5,635.5 414.5,635.5C 414.5,640.167 414.5,644.833 414.5,649.5C 405.318,649.173 396.318,649.507 387.5,650.5C 387.5,655.5 387.5,660.5 387.5,665.5C 396.833,665.5 406.167,665.5 415.5,665.5C 417.5,665.5 419.5,665.5 421.5,665.5C 421.5,670.5 421.5,675.5 421.5,680.5C 404.5,680.5 387.5,680.5 370.5,680.5C 370.5,655.833 370.5,631.167 370.5,606.5C 387.5,606.5 404.5,606.5 421.5,606.5 Z"/></g>
<g><path style="opacity:1" fill="#f2f4f5" d="M 529.5,647.5 C 530.224,650.843 531.057,654.176 532,657.5C 537.324,643.697 542.157,629.697 546.5,615.5C 547.735,612.67 548.735,609.67 549.5,606.5C 555.5,606.5 561.5,606.5 567.5,606.5C 559.167,631.167 550.833,655.833 542.5,680.5C 535.8,680.83 529.134,680.497 522.5,679.5C 519.137,670.401 515.804,661.401 512.5,652.5C 507.302,637.574 502.302,622.574 497.5,607.5C 503.31,606.51 509.31,606.177 515.5,606.5C 519.799,620.4 524.466,634.067 529.5,647.5 Z"/></g>
<g><path style="opacity:1" fill="#f2f4f5" d="M 642.5,604.5 C 650.345,605.343 657.345,608.343 663.5,613.5C 660.167,617.833 656.833,622.167 653.5,626.5C 639.335,617.47 628.502,620.47 621,635.5C 618.428,645.886 620.928,654.719 628.5,662C 637.099,666.887 645.433,666.387 653.5,660.5C 657.373,664.209 660.706,668.376 663.5,673C 655.637,679.343 646.637,682.176 636.5,681.5C 618.985,679.323 607.985,669.656 603.5,652.5C 603.737,651.209 603.404,650.209 602.5,649.5C 601.349,639.444 603.349,630.111 608.5,621.5C 611.833,617.5 615.5,613.833 619.5,610.5C 626.53,606.159 634.197,604.159 642.5,604.5 Z"/></g>
<g><path style="opacity:1" fill="#f4f5f5" d="M 722.5,606.5 C 722.5,611.167 722.5,615.833 722.5,620.5C 711.321,620.172 700.321,620.505 689.5,621.5C 689.5,626.167 689.5,630.833 689.5,635.5C 698.5,635.5 707.5,635.5 716.5,635.5C 716.5,640.167 716.5,644.833 716.5,649.5C 706.917,649.818 697.417,649.485 688,648.5C 686.386,653.99 686.053,659.657 687,665.5C 687.333,660.833 687.667,656.167 688,651.5C 688.174,656.351 688.674,661.018 689.5,665.5C 689.833,665.5 690.167,665.5 690.5,665.5C 701.5,665.5 712.5,665.5 723.5,665.5C 723.5,670.5 723.5,675.5 723.5,680.5C 706.5,680.5 689.5,680.5 672.5,680.5C 672.5,655.833 672.5,631.167 672.5,606.5C 689.167,606.5 705.833,606.5 722.5,606.5 Z"/></g>
<g><path style="opacity:1" fill="#f2f4f5" d="M 434.5,606.5 C 447.171,606.333 459.838,606.5 472.5,607C 487.528,611.042 494.361,620.876 493,636.5C 490.743,644.428 485.909,650.261 478.5,654C 483.626,662.418 488.626,670.918 493.5,679.5C 487.167,680.833 480.833,680.833 474.5,679.5C 471.059,672.94 467.392,666.607 463.5,660.5C 463.443,659.391 463.11,658.391 462.5,657.5C 459.038,656.518 455.371,656.185 451.5,656.5C 451.5,664.5 451.5,672.5 451.5,680.5C 445.833,680.5 440.167,680.5 434.5,680.5C 434.5,655.833 434.5,631.167 434.5,606.5 Z"/></g>
<g><path style="opacity:1" fill="#f6f6f5" d="M 590.5,680.5 C 585.5,680.5 580.5,680.5 575.5,680.5C 575.5,656.167 575.5,631.833 575.5,607.5C 580.975,606.511 586.642,606.178 592.5,606.5C 593.157,631.523 592.49,656.189 590.5,680.5 Z"/></g>
<g><path style="opacity:1" fill="#5998da" d="M 722.5,606.5 C 705.833,606.5 689.167,606.5 672.5,606.5C 672.5,631.167 672.5,655.833 672.5,680.5C 671.502,655.672 671.169,630.672 671.5,605.5C 688.675,605.17 705.675,605.503 722.5,606.5 Z"/></g>
<g><path style="opacity:1" fill="#1444c5" d="M 497.5,607.5 C 502.302,622.574 507.302,637.574 512.5,652.5C 512.279,655.097 511.779,655.097 511,652.5C 505.91,637.309 500.744,622.142 495.5,607C 495.667,606.5 495.833,606 496,605.5C 496.278,606.416 496.778,607.082 497.5,607.5 Z"/></g>
<g><path style="opacity:1" fill="#6ca1dc" d="M 722.5,606.5 C 723.487,611.305 723.821,616.305 723.5,621.5C 712.167,621.5 700.833,621.5 689.5,621.5C 700.321,620.505 711.321,620.172 722.5,620.5C 722.5,615.833 722.5,611.167 722.5,606.5 Z"/></g>
<g><path style="opacity:1" fill="#002cbf" d="M 387.5,621.5 C 398.838,621.333 410.172,621.5 421.5,622C 410.505,622.5 399.505,622.667 388.5,622.5C 388.5,626.5 388.5,630.5 388.5,634.5C 397.682,634.173 406.682,634.507 415.5,635.5C 415.167,635.5 414.833,635.5 414.5,635.5C 405.5,635.5 396.5,635.5 387.5,635.5C 387.5,630.833 387.5,626.167 387.5,621.5 Z"/></g>
<g><path style="opacity:1" fill="#0030c1" d="M 689.5,621.5 C 700.833,621.5 712.167,621.5 723.5,621.5C 712.679,622.495 701.679,622.828 690.5,622.5C 690.5,626.5 690.5,630.5 690.5,634.5C 699.349,634.174 708.016,634.507 716.5,635.5C 707.5,635.5 698.5,635.5 689.5,635.5C 689.5,630.833 689.5,626.167 689.5,621.5 Z"/></g>
<g><path style="opacity:1" fill="#1342c3" d="M 256.5,640.5 C 263.898,625.37 271.565,610.37 279.5,595.5C 280.537,594.983 280.703,595.649 280,597.5C 272.632,612.247 264.799,626.581 256.5,640.5 Z"/></g>
<g><path style="opacity:1" fill="#065ccc" d="M 467.5,621.5 C 475.381,624.362 477.548,629.695 474,637.5C 472.363,639.81 470.196,641.31 467.5,642C 462.845,642.499 458.179,642.666 453.5,642.5C 453.5,635.833 453.5,629.167 453.5,622.5C 458.363,622.819 463.03,622.486 467.5,621.5 Z"/></g>
<g><path style="opacity:1" fill="#002abe" d="M 467.5,621.5 C 463.03,622.486 458.363,622.819 453.5,622.5C 453.5,629.167 453.5,635.833 453.5,642.5C 452.509,635.687 452.175,628.687 452.5,621.5C 457.5,621.5 462.5,621.5 467.5,621.5 Z"/></g>
<g><path style="opacity:1" fill="#1c48c5" d="M 336.5,620.5 C 332.239,621.126 327.906,621.959 323.5,623C 320.164,627.663 321.164,630.996 326.5,633C 334.778,633.988 342.778,635.988 350.5,639C 358.989,644.146 362.489,651.646 361,661.5C 360.814,658.964 360.314,656.631 359.5,654.5C 358.541,648.096 355.207,643.263 349.5,640C 342.371,637.504 335.038,635.837 327.5,635C 319.559,632.813 317.892,628.48 322.5,622C 326.94,619.362 331.607,618.862 336.5,620.5 Z"/></g>
<g><path style="opacity:1" fill="#f2f4f5" d="M 335.5,604.5 C 343.035,605.57 350.035,608.237 356.5,612.5C 354.254,617.326 351.754,621.992 349,626.5C 345.284,623.559 341.117,621.559 336.5,620.5C 331.607,618.862 326.94,619.362 322.5,622C 317.892,628.48 319.559,632.813 327.5,635C 335.038,635.837 342.371,637.504 349.5,640C 355.207,643.263 358.541,648.096 359.5,654.5C 359.842,669.006 352.842,677.839 338.5,681C 324.992,683.538 312.658,680.871 301.5,673C 300.483,671.951 300.316,670.784 301,669.5C 303.305,665.696 305.805,662.03 308.5,658.5C 316.888,665.793 326.554,668.293 337.5,666C 338.942,665.623 339.942,664.79 340.5,663.5C 343.312,660.161 342.979,656.995 339.5,654C 335.049,652.026 330.382,651.193 325.5,651.5C 319.538,649.893 313.872,647.393 308.5,644C 302.885,638.25 301.052,631.417 303,623.5C 304.157,619.178 306.324,615.511 309.5,612.5C 317.051,606.442 325.718,603.775 335.5,604.5 Z"/></g>
<g><path style="opacity:1" fill="#0332c1" d="M 608.5,621.5 C 603.349,630.111 601.349,639.444 602.5,649.5C 601.352,645.904 601.186,640.904 602,634.5C 603.271,630.021 604.938,625.688 607,621.5C 607.69,620.262 608.19,620.262 608.5,621.5 Z"/></g>
<g><path style="opacity:1" fill="#1d6dcf" d="M 421.5,606.5 C 404.5,606.5 387.5,606.5 370.5,606.5C 370.5,631.167 370.5,655.833 370.5,680.5C 370.167,680.5 369.833,680.5 369.5,680.5C 369.5,655.5 369.5,630.5 369.5,605.5C 387.008,605.17 404.341,605.503 421.5,606.5 Z"/></g>
<g><path style="opacity:1" fill="#074bc7" d="M 575.5,607.5 C 575.5,631.833 575.5,656.167 575.5,680.5C 580.5,680.5 585.5,680.5 590.5,680.5C 590.611,681.117 590.944,681.617 591.5,682C 586.167,682.667 580.833,682.667 575.5,682C 575,681.5 574.5,681 574,680.5C 573.833,668.333 573.667,656.167 573.5,644C 573.501,631.481 574.168,619.314 575.5,607.5 Z"/></g>
<g><path style="opacity:1" fill="#024ac8" d="M 103.5,581.5 C 98.1319,586.355 92.2986,590.689 86,594.5C 85.5001,611.163 85.3334,627.83 85.5,644.5C 141.833,644.5 198.167,644.5 254.5,644.5C 254.389,645.117 254.056,645.617 253.5,646C 197.5,646.667 141.5,646.667 85.5,646C 84.3418,628.574 84.1751,611.074 85,593.5C 91.0672,589.251 97.2339,585.251 103.5,581.5 Z"/></g>
<g><path style="opacity:1" fill="#014ac7" d="M 933.5,592.5 C 935.582,592.624 937.082,593.624 938,595.5C 938.667,611.833 938.667,628.167 938,644.5C 937.5,645 937,645.5 936.5,646C 880.833,646.667 825.167,646.667 769.5,646C 768.584,645.626 767.75,645.126 767,644.5C 762.155,635.208 757.655,625.875 753.5,616.5C 758.853,625.365 763.853,634.531 768.5,644C 824.499,644.5 880.499,644.667 936.5,644.5C 936.833,627.82 936.499,611.153 935.5,594.5C 934.478,594.145 933.811,593.478 933.5,592.5 Z"/></g>
<g><path style="opacity:1" fill="#6ba3de" d="M 414.5,635.5 C 414.833,635.5 415.167,635.5 415.5,635.5C 415.5,640.5 415.5,645.5 415.5,650.5C 406.167,650.5 396.833,650.5 387.5,650.5C 396.318,649.507 405.318,649.173 414.5,649.5C 414.5,644.833 414.5,640.167 414.5,635.5 Z"/></g>
<g><path style="opacity:1" fill="#bed5eb" d="M 716.5,649.5 C 716.5,649.833 716.5,650.167 716.5,650.5C 707.5,650.5 698.5,650.5 689.5,650.5C 689.5,655.5 689.5,660.5 689.5,665.5C 688.674,661.018 688.174,656.351 688,651.5C 687.667,656.167 687.333,660.833 687,665.5C 686.053,659.657 686.386,653.99 688,648.5C 697.417,649.485 706.917,649.818 716.5,649.5 Z"/></g>
<g><path style="opacity:1" fill="#0740c2" d="M 546.5,615.5 C 542.157,629.697 537.324,643.697 532,657.5C 531.057,654.176 530.224,650.843 529.5,647.5C 530.479,648.765 531.479,650.099 532.5,651.5C 537.282,639.326 541.782,626.993 546,614.5C 546.399,614.728 546.565,615.062 546.5,615.5 Z"/></g>
<g><path style="opacity:1" fill="#063ac3" d="M 325.5,651.5 C 330.382,651.193 335.049,652.026 339.5,654C 342.979,656.995 343.312,660.161 340.5,663.5C 342.272,660.087 341.605,657.254 338.5,655C 334.081,653.648 329.748,652.481 325.5,651.5 Z"/></g>
<g><path style="opacity:1" fill="#0341c4" d="M 387.5,650.5 C 396.833,650.5 406.167,650.5 415.5,650.5C 406.682,651.493 397.682,651.827 388.5,651.5C 388.5,655.5 388.5,659.5 388.5,663.5C 399.505,663.333 410.505,663.5 421.5,664C 419.292,664.191 417.292,664.691 415.5,665.5C 406.167,665.5 396.833,665.5 387.5,665.5C 387.5,660.5 387.5,655.5 387.5,650.5 Z"/></g>
<g><path style="opacity:1" fill="#0139c2" d="M 716.5,650.5 C 708.016,651.493 699.349,651.826 690.5,651.5C 690.5,655.5 690.5,659.5 690.5,663.5C 701.172,663.333 711.839,663.5 722.5,664C 711.659,664.17 700.992,664.67 690.5,665.5C 690.167,665.5 689.833,665.5 689.5,665.5C 689.5,660.5 689.5,655.5 689.5,650.5C 698.5,650.5 707.5,650.5 716.5,650.5 Z"/></g>
<g><path style="opacity:1" fill="#70a7de" d="M 462.5,657.5 C 459.167,657.5 455.833,657.5 452.5,657.5C 452.825,665.352 452.492,673.018 451.5,680.5C 451.5,672.5 451.5,664.5 451.5,656.5C 455.371,656.185 459.038,656.518 462.5,657.5 Z"/></g>
<g><path style="opacity:1" fill="#e8eef3" d="M 760.5,665.5 C 819.167,665.5 877.833,665.5 936.5,665.5C 936.5,670.5 936.5,675.5 936.5,680.5C 877.833,680.5 819.167,680.5 760.5,680.5C 760.5,675.5 760.5,670.5 760.5,665.5 Z"/></g>
<g><path style="opacity:1" fill="#0f42c5" d="M 603.5,652.5 C 607.985,669.656 618.985,679.323 636.5,681.5C 638.292,682.309 640.292,682.809 642.5,683C 623.281,683.969 610.114,675.469 603,657.5C 602.22,655.613 602.387,653.946 603.5,652.5 Z"/></g>
<g><path style="opacity:1" fill="#002bc1" d="M 85.5,680.5 C 84.5119,675.36 84.1786,670.026 84.5,664.5C 143.833,664.5 203.167,664.5 262.5,664.5C 262.5,670.167 262.5,675.833 262.5,681.5C 203.331,681.832 144.331,681.499 85.5,680.5 Z"/></g>
<g><path style="opacity:1" fill="#e8eef3" d="M 85.5,680.5 C 85.5,675.5 85.5,670.5 85.5,665.5C 144.167,665.5 202.833,665.5 261.5,665.5C 261.5,670.5 261.5,675.5 261.5,680.5C 202.833,680.5 144.167,680.5 85.5,680.5 Z"/></g>
<g><path style="opacity:1" fill="#002ac1" d="M 760.5,665.5 C 760.5,670.5 760.5,675.5 760.5,680.5C 819.167,680.5 877.833,680.5 936.5,680.5C 877.669,681.499 818.669,681.832 759.5,681.5C 759.179,675.974 759.512,670.64 760.5,665.5 Z"/></g>
<g><path style="opacity:1" fill="#0149c6" d="M 369.5,680.5 C 369.833,680.5 370.167,680.5 370.5,680.5C 387.5,680.5 404.5,680.5 421.5,680.5C 422.738,680.81 422.738,681.31 421.5,682C 404.5,682.667 387.5,682.667 370.5,682C 369.944,681.617 369.611,681.117 369.5,680.5 Z"/></g>
<g><path style="opacity:1" fill="#0639c3" d="M 434.5,606.5 C 434.5,631.167 434.5,655.833 434.5,680.5C 440.167,680.5 445.833,680.5 451.5,680.5C 452.492,673.018 452.825,665.352 452.5,657.5C 455.833,657.5 459.167,657.5 462.5,657.5C 463.11,658.391 463.443,659.391 463.5,660.5C 460.495,658.701 457.162,658.034 453.5,658.5C 453.831,666.196 453.497,673.862 452.5,681.5C 446.303,682.817 440.136,682.817 434,681.5C 433.172,655.761 433.339,630.761 434.5,606.5 Z"/></g>
</svg>
